<?xml version="1.0" encoding="UTF-8"?>
<!-- Generator: Adobe Illustrator 16.0.3, SVG Export Plug-In . SVG Version: 6.00 Build 0)  -->
<!DOCTYPE svg PUBLIC "-//W3C//DTD SVG 1.1//EN" "http://www.w3.org/Graphics/SVG/1.1/DTD/svg11.dtd">
<svg version="1.1" id="Layer_1" xmlns="http://www.w3.org/2000/svg" xmlns:xlink="http://www.w3.org/1999/xlink" x="0px" y="0px" width="295.805px" height="295.803px" viewBox="0 0 295.805 295.803" enable-background="new 0 0 295.805 295.803" xml:space="preserve">
<g>
	<path fill="#FFCE00" d="M160.263,290.325l130.063-130.063c6.825-6.827,6.825-17.896,0-24.722L160.263,5.479   c-6.827-6.827-17.895-6.827-24.722,0L5.479,135.541c-6.827,6.827-6.827,17.895,0,24.722l130.063,130.063   C142.368,297.152,153.436,297.152,160.263,290.325"/>
	<g>
		<polygon points="145.896,96.765 152.645,96.765 152.645,91.657 134.038,91.657 134.038,96.765 140.788,96.765 140.788,128.14     145.896,128.14   "/>
		<path d="M138.215,168.323c0.512-2.071,0.512-4.234,0-6.306c-0.947-3.826-4.381-6.516-8.323-6.516h-11.724v36.482h5.107v-17.146    h5.131l4.882,17.146h5.31l-5.107-17.938C135.853,172.954,137.59,170.848,138.215,168.323z M133.256,167.097    c-0.383,1.547-1.771,2.634-3.364,2.634h-6.616v-9.12h6.616c1.594,0,2.981,1.087,3.364,2.635    C133.568,164.509,133.568,165.832,133.256,167.097z"/>
		<polygon points="184.566,191.985 203.175,191.985 203.175,186.876 189.675,186.876 189.675,175.204 197.667,175.204     197.667,170.096 189.675,170.096 189.675,160.611 203.175,160.611 203.175,155.502 184.566,155.502   "/>
		<polygon points="185.334,91.657 179.276,116.895 173.221,91.657 167.968,91.657 176.725,128.14 181.831,128.14 190.587,91.657       "/>
		<path d="M129.659,119.476v-1.004h-5.107v1.004c0,1.722-1.052,3.269-2.653,3.902c-2.154,0.851-4.592-0.205-5.443-2.361    c-2.824-7.143-2.824-15.093,0-22.236c0.633-1.602,2.181-2.653,3.9-2.653c2.318,0,4.196,1.878,4.196,4.193h5.107    c0-3.816-2.331-7.247-5.883-8.65c-4.778-1.889-10.183,0.453-12.071,5.231c-3.302,8.352-3.302,17.644,0,25.993    c1.402,3.551,4.834,5.883,8.65,5.883C125.496,128.778,129.659,124.613,129.659,119.476z"/>
		<path d="M164.848,168.323c0.512-2.071,0.512-4.234,0-6.306c-0.946-3.826-4.381-6.516-8.323-6.516H144.8v36.482h5.109v-17.146    h5.128l4.883,17.146h5.31l-5.106-17.938C162.485,172.954,164.224,170.848,164.848,168.323z M159.889,167.097    c-0.382,1.547-1.771,2.634-3.365,2.634h-6.614v-9.12h6.614c1.595,0,2.983,1.087,3.365,2.635    C160.201,164.509,160.201,165.832,159.889,167.097z"/>
		<rect x="171.435" y="155.502" width="5.106" height="36.482"/>
		<path d="M229.423,168.323c0.512-2.071,0.512-4.234,0-6.306c-0.946-3.826-4.381-6.516-8.323-6.516h-11.724v36.482h5.107v-17.146    h5.129l4.884,17.146h5.311l-5.106-17.938C227.061,172.954,228.799,170.848,229.423,168.323z M224.465,167.097    c-0.384,1.547-1.772,2.634-3.365,2.634h-6.615v-9.12h6.615c1.593,0,2.981,1.087,3.365,2.635    C224.777,164.509,224.777,165.832,224.465,167.097z"/>
		<path d="M287.638,138.228L157.575,8.166c-5.344-5.343-14.005-5.343-19.348,0L8.167,138.228c-5.343,5.343-5.343,14.005,0,19.348    l130.062,130.063c5.343,5.344,14.004,5.344,19.348,0l130.063-130.063C292.981,152.233,292.981,143.571,287.638,138.228z     M283.875,153.814L153.813,283.875c-3.265,3.266-8.558,3.266-11.822,0L11.928,153.814c-3.266-3.266-3.266-8.559,0-11.823    L141.99,11.928c3.265-3.265,8.558-3.265,11.822,0L283.875,141.99C287.142,145.255,287.142,150.548,283.875,153.814z"/>
		<rect x="157.752" y="91.657" width="5.106" height="36.482"/>
		<polygon points="214.301,123.032 200.803,123.032 200.803,111.358 208.794,111.358 208.794,106.25 200.803,106.25 200.803,96.765     214.301,96.765 214.301,91.657 195.695,91.657 195.695,128.14 214.301,128.14   "/>
		<path d="M99.586,128.14h5.266l-9.121-36.482h-5.107l-9.121,36.482h5.266l2.507-10.032h7.805L99.586,128.14z M90.553,113    l2.623-10.499L95.801,113H90.553z"/>
		<path d="M81.874,172.921c1.696-1.043,2.945-2.68,3.504-4.591c0.671-2.303,0.671-4.747,0-7.048c-0.999-3.426-4.138-5.78-7.705-5.78    H65.998v36.482H77.99c3.215,0,6.118-1.916,7.381-4.871c1.408-3.297,1.408-7.024,0-10.32    C84.669,175.148,83.438,173.786,81.874,172.921z M71.105,160.611h6.567c1.297,0,2.438,0.855,2.802,2.101    c0.623,2.137,0.262,4.439-0.983,6.283c-0.544,0.803-1.449,1.284-2.419,1.284h-5.967V160.611z M80.675,185.105    c-0.46,1.076-1.516,1.771-2.685,1.771h-6.886v-11.49h5.764c0.764,0,1.498,0.298,2.043,0.834    C81.274,178.535,81.975,182.063,80.675,185.105z"/>
		<path d="M98.833,155.502l-9.12,36.482h5.263l2.508-10.032h7.805l2.508,10.032h5.266l-9.121-36.482H98.833z M98.761,176.845    l2.625-10.499l2.624,10.499H98.761z"/>
	</g>
</g>
</svg>