<?xml version="1.0" encoding="UTF-8" standalone="no"?>
<!-- Generator: Adobe Illustrator 12.0.1, SVG Export Plug-In  -->

<svg
   xmlns:dc="http://purl.org/dc/elements/1.1/"
   xmlns:cc="http://creativecommons.org/ns#"
   xmlns:rdf="http://www.w3.org/1999/02/22-rdf-syntax-ns#"
   xmlns:svg="http://www.w3.org/2000/svg"
   xmlns="http://www.w3.org/2000/svg"
   xmlns:sodipodi="http://sodipodi.sourceforge.net/DTD/sodipodi-0.dtd"
   xmlns:inkscape="http://www.inkscape.org/namespaces/inkscape"
   version="1.1"
   width="2942.8635"
   height="2942.8538"
   viewBox="0 -0.764 2942.8636 2942.8538"
   enable-background="new 0 -0.764 289 256"
   xml:space="preserve"
   id="svg2"
   inkscape:version="0.48.2 r9819"
   sodipodi:docname="AJAX1.svg"><metadata
   id="metadata26"><rdf:RDF><cc:Work
       rdf:about=""><dc:format>image/svg+xml</dc:format><dc:type
         rdf:resource="http://purl.org/dc/dcmitype/StillImage" /></cc:Work></rdf:RDF></metadata><sodipodi:namedview
   pagecolor="#ffffff"
   bordercolor="#666666"
   borderopacity="1"
   objecttolerance="10"
   gridtolerance="10"
   guidetolerance="10"
   inkscape:pageopacity="0"
   inkscape:pageshadow="2"
   inkscape:window-width="1280"
   inkscape:window-height="1004"
   id="namedview24"
   showgrid="false"
   fit-margin-top="0"
   fit-margin-left="0"
   fit-margin-right="0"
   fit-margin-bottom="0"
   inkscape:zoom="0.20811725"
   inkscape:cx="35.913651"
   inkscape:cy="1051.2344"
   inkscape:window-x="-8"
   inkscape:window-y="-8"
   inkscape:window-maximized="1"
   inkscape:current-layer="svg2" />
<defs
   id="defs4">
</defs>









<path
   inkscape:connector-curvature="0"
   style="fill:#ffd033;fill-rule:nonzero;stroke:none"
   d="m 1566.8824,2902.5554 c -52.7125,52.7125 -138.2,52.7125 -190.9125,0 L 39.540806,1566.1179 c -52.720875,-52.7125 -52.720875,-138.2 -0.0012,-190.9125 L 1375.9699,38.777708 c 52.7125,-52.7223 138.2,-52.7223 190.9125,0 L 2903.3199,1375.2054 c 52.725,52.7125 52.725,138.2 0,190.9125 L 1566.8824,2902.5554 z"
   id="path11" /><path
   inkscape:connector-curvature="0"
   style="fill:#000000;fill-rule:nonzero;stroke:none"
   d="M 2839.6906,1502.4885 1503.2531,2838.926 c -17.5375,17.5375 -46.0875,17.5375 -63.6375,0 L 103.17969,1502.4885 c -17.545134,-17.55 -17.545134,-46.0875 0,-63.6375 L 1439.6156,102.41521 c 17.55,-17.543802 46.1,-17.543802 63.6375,0 L 2839.6906,1438.851 c 17.5375,17.55 17.5375,46.0875 0,63.6375 z M 2879.4656,1399.076 1543.0281,62.641108 c -39.475,-39.4776 -103.7125,-39.4776 -143.1875,0 L 63.404306,1399.076 c -39.47625,39.475 -39.47625,103.7125 0.0013,143.1875 L 1399.8406,2878.701 c 39.475,39.475 103.7125,39.475 143.1875,0 L 2879.4656,1542.2635 c 39.475,-39.475 39.475,-103.7125 0,-143.1875 z"
   id="path13" /><path
   inkscape:connector-curvature="0"
   style="fill:#000000;fill-rule:nonzero;stroke:none"
   d="m 2228.7923,1746.7229 c -1.675,-14.2875 0.3625,-37.025 3,-54.0125 3.0625,-19.8 2.9875,-38.65 2.9875,-58.725 0,-15.7625 3,-31.5 3,-47.25 l 0,-128.7125 c 0,-1.95 0.088,-3.8875 0,-5.825 -1.3,-25.2625 -5.6875,-64.55 -15.275,-93.2875 -11.85,-35.55 -22.7875,-73.95 -40.6,-107.35 -21.4625,-40.24 -44.1625,-65.8638 -74.15,-99.2 -9.9875,-11.105 -50.025,-45.2038 -83.0625,-65.3688 -16.325,-9.9575 -57.1625,-27.9625 -104.855,-34.5037 -37.525,-5.1488 -76.0125,-10.7888 -113.9125,-10.7888 -19.1125,0 -38.1,-3.0337 -57.1375,-3.0362 -16.5,0 -33.2875,2.6112 -49.7875,3.83 -43.275,3.2012 -86.3375,9.4312 -129.7125,10.3562 -11.5375,0.245 -47.2125,7.505 -49.4375,6.5013 -17.2125,-7.7463 -35.8875,-7.745 -54.55,-10.1888 -41.425,-5.4212 -82.6125,-12.0925 -123.875,-18.595 -22.65,-3.5662 -51,-9.165 -69.65,-9.8675 -7.8375,-0.2937 -21.525,2.4463 -30.9962,4.5488 -6.5913,1.4612 -38.6275,8.0125 -50.5038,19.9162 -5.6225,5.6375 -11.4725,11.5025 -11.4725,11.5025 0,0 -58.935,-10.7512 -108.0275,-5.9862 -48.2038,4.675 -86.54375,24.8587 -90.73625,26.2512 -0.725,0.2413 -1.7925,0.9638 -2.65875,0.4025 -6.77,-4.39 -16.9475,-2.715 -22.195,-3.0037 -8.51125,-0.4638 -17.97875,1.2075 -25.38375,3.3575 -2.87625,-30.115 -21.335,-46.365 -47.875,-46.365 -29.34,0 -53.12375,23.7837 -53.12375,53.125 0,10.1162 2.83,19.5725 7.73875,27.6212 -0.2325,2.4275 -1.12,4.6938 -2.365,6.8563 -2.56875,4.4562 -3.535,6.895 -6.67,9.5012 -4.34,3.6088 -8.58625,7.1138 -12.6125,10.6738 -10.46375,6.1337 -19.5225,17.6262 -25.08875,32.2437 -1.4525,3.5563 -2.62375,7.355 -3.47125,11.455 -0.5125,2.2288 -0.95625,4.5 -1.31,6.82 -1.82,11.9463 -1.18125,23.445 1.40875,33.495 -0.17875,6.8025 -1.38125,13.3725 -5.075,19.4813 -4.29125,7.1025 -11.8,12.2525 -14.71625,20.3775 -2.32625,6.4875 -5.70875,14.325 -12.94375,18.2375 -11.1275,6.025 -26.9525,6.375 -27.665,6.4125 -1.3375,-0.225 -2.7025,-0.3625 -4.1025,-0.3625 -13.635,0 -24.6875,11.05 -24.6875,24.6875 0,10.3625 6.4,19.225 15.45625,22.875 2.8075,2.0625 5.8975,4.1 9.12875,6.2625 5.3475,3.5875 5.325,9.875 5.50625,15.725 -0.005,0.038 -0.0163,0.075 -0.0213,0.1125 -0.28125,2.3625 0.0325,4.6875 0.8025,6.9 0.18125,0.65 0.40375,1.2625 0.6875,1.8375 0.0475,0.1 0.12625,0.2 0.1825,0.3 0.0113,0 0.03,0.013 0.0425,0.013 3.365,6.6125 11.11,11.7875 20.63625,12.9125 3.13625,0.375 6.18,0.2625 9.0375,-0.2375 -1.9725,6.9625 -0.0812,15.7625 5.66625,23.0625 0.3725,0.475 0.76375,0.9125 1.155,1.3625 5.65,11.4 17.38625,19.2625 30.9775,19.2625 2.92,0 5.75375,-0.3625 8.4625,-1.05 1.58625,-0.1375 3.26875,-0.35 5.12,-0.6625 7.02375,-1.1875 14.50125,-2.025 21.33125,0.25 17.43375,5.825 34.8225,11.7 53.01,14.725 21.00375,3.5 41.215,5.8375 62.4525,7.375 10.09375,0.7375 14.54625,1.275 12.8325,13.3 -1.27625,8.95 -3.5025,17.4375 -1.7325,26.325 3.49625,17.5375 9.265,33.5125 4.81,51.075 -4.04375,15.925 -20.06375,29.075 -32.07375,41.0875 -12.58125,12.5875 -28.18625,25.3875 -36.2675,41.5875 -9.455,18.95 -12.6475,34.6625 -12.6475,55.6875 0,38 18.645,68.05 48.66625,90.175 62.55375,46.125 104.3312,38.5125 104.3312,38.5125 0,0 0,-55 0,-60.2 0,-4.1375 0,-23.825 0,-23.825 0,0 -0.1875,0.062 0,0 5.2013,-1.7375 21.9375,-7.225 27.2963,-9.1 35.035,-12.2875 69.9037,-30.5 98.2812,-45.2375 7.425,-3.8625 13.3888,-7.55 19.8425,-10.8625 0.5288,-0.275 8.5013,-7.175 13.3888,-15.2 2.8937,-4.7625 4.0962,-9.3375 5.7237,-14.7 0.4438,-6.4 0.4438,-20.6875 0.4438,-27.8875 l 0,-27 c 9.5912,11.225 18.205,10.225 29.3737,14.7625 6.6263,2.7 12.6438,6.2 12.6438,6.2 0,0 -1.9025,9.525 -3.63,18.1875 -4.3363,21.7375 -5.5275,43.875 -8.3963,65.85 -2.505,19.175 -5.005,38.425 -9.6187,57.2 -4.3625,17.75 -1.2688,34.45 -2.44,52.075 -0.755,11.3375 -2.0263,30.45 -2.8888,45.8375 -0.2362,4.2125 -3.2462,7.425 -6.0087,9.8375 -13.0538,11.4375 -38.1888,5.5375 -53.995,9.025 -18.4238,4.0625 -30.7038,11.7125 -40.1238,28.625 -4.24,7.6125 -10.9162,16.425 -10.9162,16.425 0,3.05 0,11.975 0,11.975 0,0 6.83,0 8.4062,0 l 202.01,0 c 50.85,0 66.6625,-42.4375 74.6,-57.025 8.75,-16.0375 14.1625,-34.5875 21.1625,-51.4 13.325,-31.975 26.2375,-71.7625 37.275,-109.225 5.85,-19.8625 13.275,-49.9375 17.9875,-76.1375 0.3875,-2.1375 4.225,-34.15 4.575,-36.225 l 32.9875,21 c 7.7,3.125 33.2625,22.7 32.9875,23.975 -0.2625,1.2125 1.15,11.7625 -2.725,17.725 -1.6125,6.9125 -3.475,13.875 -4.175,19.5125 -1.125,9 -3.5875,19.6375 -2.0875,28.775 0.5625,3.4375 2.8375,20.125 3.925,21.9375 5.5875,9.225 9.825,14.525 17.0875,23.05 5.175,6.075 10.6125,11.55 15.725,17.6875 13.35,16.05 24.225,29.1125 41.65,43.7875 8.2375,6.9375 36.1,30.1875 38.6375,37.575 1.65,4.8375 -35.0125,14 -48.0375,21 -14.675,7.8875 -34.2,15.9125 -43.4875,31.4625 -2.7375,4.5875 -22.225,40.4875 -9.0625,40.4875 l 205.075,0 c 19.65,0 67.025,0 67.025,0 0,0 11.4,-4.0375 16.0125,-16.625 9.325,-25.45 5.6125,-36.2625 7.4375,-57.4625 1.0625,-12.3625 -8.9875,-42.9125 -8.9875,-42.9125 0,0 2.2125,-1.1125 3.125,-1.5625 35.9,-17.975 61.625,-42.175 89.8875,-70.4 29.3175,44.175 66.2675,83.7 102.005,123 -12.9375,8.6 -30.4375,15.35 -41.35,26.3125 -5.225,5.2375 -10.9875,10.775 -13.4,17.975 -0.25,0.7375 -7.4375,21.675 -5.1625,21.675 l 132.7625,0 c 7.7625,0 19.3375,0 19.3375,0 0,0 10.45,-5.0125 17.6875,-10.525 17.5,-13.3125 33.875,-23.825 51.45,-35.125 14.7375,-9.475 30.85,-17.6125 43.325,-29.975 11.6875,-11.55 13.3375,-31.675 14.325,-47.45 1.2625,-20.25 -13.5375,-38.5875 -14.975,-50.875 z"
   id="path15" /></svg>